<svg version="1.2" xmlns="http://www.w3.org/2000/svg" viewBox="0 0 90 64" width="90" height="64">
	<title>bizdev-white-svg</title>
	<style>
		.s0 { fill: #ffffff } 
	</style>
	<g id="Layer">
		<path id="Layer" class="s0" d="m90 62.5c0 0.8-0.7 1.5-1.5 1.5h-87c-0.8 0-1.5-0.7-1.5-1.5v-55c0-0.8 0.7-1.5 1.5-1.5c0.8 0 1.5 0.7 1.5 1.5v52.5c0 0.6 0.5 1 1 1h84.5c0.8 0 1.5 0.7 1.5 1.5z" />
		<path id="Layer" class="s0" d="m9 32c0-1.7 1.3-3 3-3h8c1.7 0 3 1.3 3 3v30h-14z" />
		<path id="Layer" class="s0" d="m29 23c0-1.7 1.3-3 3-3h8c1.7 0 3 1.3 3 3v39h-14z" />
		<path id="Layer" class="s0" d="m49 41c0-1.7 1.3-3 3-3h8c1.7 0 3 1.3 3 3v21h-14z" />
		<path id="Layer" class="s0" d="m69 19c0-1.7 1.3-3 3-3h8c1.7 0 3 1.3 3 3v43h-14z" />
		<path id="Layer" class="s0" d="m70.4 12l-3.9-2.8l-9.5 13.1l-0.1 0.1c0 0.1-0.1 0.1-0.1 0.1c0 0 0 0.1-0.1 0.1c-0.1 0-0.2 0.1-0.3 0.1h-0.1h-0.1c-0.1 0-0.1 0-0.2 0c-0.1 0-0.2 0-0.3-0.1l-17.8-11.6l-20.7 10.8c-0.2 0.1-0.3 0.1-0.5 0.1c-0.4 0-0.7-0.2-0.9-0.5c-0.3-0.4-0.1-1 0.4-1.3l21.2-11h0.1c0.1-0.1 0.1-0.1 0.2-0.1c0.1 0 0.1 0 0.2 0c0.1 0 0.1 0 0.2 0c0.1 0 0.1 0 0.2 0.1h0.1l17.6 11.4l9-12.3l-3.9-2.8l10.5-4.7z" />
	</g>
</svg>