<?xml version="1.0" encoding="UTF-8" standalone="no"?><!-- Generator: Gravit.io --><svg xmlns="http://www.w3.org/2000/svg" xmlns:xlink="http://www.w3.org/1999/xlink" style="isolation:isolate" viewBox="0 0 90 64" width="90pt" height="64pt"><defs><clipPath id="_clipPath_CSNQ7TezYGcrLlVKHx9HumcWc1pfIQaN"><rect width="90" height="64"/></clipPath></defs><g clip-path="url(#_clipPath_CSNQ7TezYGcrLlVKHx9HumcWc1pfIQaN)"><path d=" M 88.5 61 L 4 61 C 3.5 61 3 60.6 3 60 L 3 7.5 C 3 6.7 2.3 6 1.5 6 C 0.7 6 0 6.7 0 7.5 L 0 62.5 C 0 62.5 0 62.5 0 62.5 L 0 62.5 C 0 63.3 0.7 64 1.5 64 L 88.5 64 C 89.3 64 90 63.3 90 62.5 C 90 61.7 89.3 61 88.5 61 Z " fill="rgb(90,90,90)"/><path d=" M 9 32 C 9 30.3 10.3 29 12 29 L 20 29 C 21.7 29 23 30.3 23 32 L 23 62 L 9 62 L 9 32 L 9 32 Z " fill="rgb(90,90,90)"/><path d=" M 29 25.507 C 29 23.916 30.3 22.7 32 22.7 L 40 22.7 C 41.7 22.7 43 23.916 43 25.507 L 43 62 L 29 62 L 29 25.507 Z " fill="rgb(90,90,90)"/><path d=" M 49 41 C 49 39.3 50.3 38 52 38 L 60 38 C 61.7 38 63 39.3 63 41 L 63 62 L 49 62 L 49 41 L 49 41 Z " fill="rgb(90,90,90)"/><path d=" M 69 20.87 C 69 19.243 70.3 18 72 18 L 80 18 C 81.7 18 83 19.243 83 20.87 L 83 62 L 69 62 L 69 20.87 Z " fill="rgb(90,90,90)"/><path d=" M 71.6 0.7 L 61.1 5.4 L 65 8.2 L 56 20.5 L 38.4 9.1 C 38.4 9.1 38.3 9.1 38.3 9.1 C 38.2 9 38.2 9 38.1 9 C 38 9 38 9 37.9 9 C 37.8 9 37.8 9 37.7 9 C 37.6 9 37.6 9 37.5 9.1 C 37.5 9.1 37.4 9.1 37.4 9.1 L 16.2 20.1 C 15.7 20.4 15.5 21 15.8 21.4 C 16 21.7 16.3 21.9 16.7 21.9 C 16.9 21.9 17 21.9 17.2 21.8 L 37.9 11 L 55.7 22.6 C 55.8 22.7 55.9 22.7 56 22.7 C 56 22.7 56 22.7 56 22.7 C 56.1 22.7 56.1 22.7 56.2 22.7 C 56.2 22.7 56.3 22.7 56.3 22.7 C 56.3 22.7 56.4 22.7 56.4 22.7 C 56.5 22.7 56.6 22.6 56.7 22.6 C 56.8 22.6 56.8 22.5 56.8 22.5 C 56.8 22.5 56.9 22.5 56.9 22.4 C 56.9 22.4 57 22.3 57 22.3 L 66.5 9.2 L 70.4 12 L 71.6 0.7 L 71.6 0.7 Z " fill="rgb(90,90,90)"/></g></svg>