<svg width="80" height="77" viewBox="0 0 80 77" fill="none" xmlns="http://www.w3.org/2000/svg">
<path d="M24.2305 68.8887V69.4847C24.2307 70.0062 24.438 70.5062 24.8067 70.8749C25.1754 71.2436 25.6754 71.4509 26.1968 71.4511H34.7422" stroke="#5A5A5A" stroke-width="3" stroke-miterlimit="10" stroke-linecap="round"/>
<path d="M24.2305 25.4597V3.96637C24.2307 3.44493 24.438 2.94493 24.8067 2.57622C25.1754 2.20751 25.6754 2.00026 26.1968 2H75.7143C76.2358 2.00026 76.7358 2.20751 77.1045 2.57622C77.4732 2.94493 77.6805 3.44493 77.6807 3.96637V69.4854C77.6805 70.0068 77.4732 70.5068 77.1045 70.8756C76.7358 71.2443 76.2358 71.4515 75.7143 71.4518H58.4311" stroke="#5A5A5A" stroke-width="3" stroke-miterlimit="10" stroke-linecap="round"/>
<path d="M70.9623 14.043H30.6142C30.4584 14.043 30.332 14.1693 30.332 14.3251V15.081C30.332 15.2369 30.4584 15.3632 30.6142 15.3632H70.9623C71.1181 15.3632 71.2445 15.2369 71.2445 15.081V14.3251C71.2445 14.1693 71.1181 14.043 70.9623 14.043Z" fill="#5A5A5A"/>
<path d="M70.9623 24.1055H30.6142C30.4584 24.1055 30.332 24.2318 30.332 24.3876V25.1435C30.332 25.2994 30.4584 25.4257 30.6142 25.4257H70.9623C71.1181 25.4257 71.2445 25.2994 71.2445 25.1435V24.3876C71.2445 24.2318 71.1181 24.1055 70.9623 24.1055Z" fill="#5A5A5A"/>
<path d="M70.9658 34.168H37.7118C37.556 34.168 37.4297 34.2943 37.4297 34.4501V35.206C37.4297 35.3619 37.556 35.4882 37.7118 35.4882H70.9658C71.1216 35.4882 71.248 35.3619 71.248 35.206V34.4501C71.248 34.2943 71.1216 34.168 70.9658 34.168Z" fill="#5A5A5A"/>
<path d="M70.9664 43.5723H42.6611C42.5052 43.5723 42.3789 43.6986 42.3789 43.8544V44.6103C42.3789 44.7662 42.5052 44.8925 42.6611 44.8925H70.9664C71.1222 44.8925 71.2485 44.7662 71.2485 44.6103V43.8544C71.2485 43.6986 71.1222 43.5723 70.9664 43.5723Z" fill="#5A5A5A"/>
<path d="M70.9664 52.9746H42.6611C42.5052 52.9746 42.3789 53.1009 42.3789 53.2568V54.0127C42.3789 54.1685 42.5052 54.2948 42.6611 54.2948H70.9664C71.1222 54.2948 71.2485 54.1685 71.2485 54.0127V53.2568C71.2485 53.1009 71.1222 52.9746 70.9664 52.9746Z" fill="#5A5A5A"/>
<path d="M36.8622 45.453L39.623 43.92C39.0818 41.8978 39.156 42.1741 38.6138 40.1538L35.4573 40.2058L33.6998 37.1619L35.3234 34.457L32.5674 31.701L29.8595 33.3245L26.8156 31.5681L26.8676 28.4105L23.1024 27.4013L21.5684 30.1621H18.0546L16.5216 27.3984L12.7554 28.4076L12.8074 31.5652L9.76444 33.3216L7.05659 31.6981L4.29963 34.457L5.92318 37.1648L4.16674 40.2058L1.00918 40.1538C0.467037 42.1761 0.541185 41.8997 0 43.92L2.76081 45.453V48.9669L0 50.5009C0.541185 52.5231 0.467037 52.2458 1.00918 54.2661L4.16674 54.2141L5.92318 57.258L4.29963 59.9658L7.05659 62.7218L9.76444 61.0983L12.8074 62.8557L12.7554 66.0123L16.5216 67.0215L18.0546 64.2607H21.5684L23.1024 67.0215L26.8676 66.0123L26.8156 62.8557L29.8595 61.0983L32.5674 62.7218C34.0455 61.2427 33.8453 61.444 35.3234 59.9658L33.6998 57.258L35.4573 54.2141L38.6138 54.2661C39.156 52.2438 39.0818 52.5212 39.623 50.5009L36.8622 48.9669V45.453ZM19.812 54.9864C18.2742 54.9866 16.7708 54.5307 15.4921 53.6764C14.2134 52.8222 13.2167 51.6079 12.6281 50.1872C12.0395 48.7665 11.8854 47.2031 12.1854 45.6948C12.4854 44.1865 13.2259 42.8011 14.3133 41.7137C15.4007 40.6263 16.7862 39.8858 18.2945 39.5858C19.8027 39.2858 21.3661 39.4399 22.7868 40.0285C24.2076 40.617 25.4218 41.6137 26.2761 42.8925C27.1303 44.1712 27.5862 45.6745 27.586 47.2124C27.5852 49.2737 26.7659 51.2504 25.3081 52.7079C23.8503 54.1653 21.8734 54.9842 19.812 54.9844V54.9864Z" fill="#5A5A5A"/>
<path d="M55.3015 65.1189L56.7526 64.3129C56.4686 63.2536 56.5071 63.3942 56.222 62.332L54.5619 62.359C54.1478 61.6416 54.0535 61.4769 53.6384 60.7595L54.4916 59.3353C53.7145 58.5582 53.8175 58.6612 53.0472 57.886L51.6239 58.7402L50.0235 57.8157L50.0504 56.1556L48.0706 55.625L47.2646 57.0772H45.4118L44.6058 55.625L42.625 56.1556L42.6529 57.8157L41.0525 58.7402L39.6283 57.886L38.179 59.3353L39.0332 60.7576L38.1087 62.3571L36.4486 62.3301C36.1645 63.3894 36.203 63.2488 35.918 64.3109L37.3701 65.1169V66.9639L35.918 67.7709C36.2069 68.8301 36.1645 68.6886 36.4486 69.7507L38.1087 69.7237L39.0332 71.3232L38.179 72.7475L39.6283 74.1967L41.0525 73.3435L42.6529 74.267L42.625 75.9272L44.6058 76.4577L45.4118 75.0095H47.2597L48.0657 76.4606L50.0456 75.93L50.0186 74.2699L51.6191 73.3464L53.0423 74.1996C53.8204 73.4225 53.7164 73.5255 54.4868 72.7503L53.6336 71.3261C54.0486 70.6087 54.143 70.444 54.5571 69.7266L56.2172 69.7536C56.5061 68.6943 56.4637 68.8359 56.7478 67.7737L55.2966 66.9668L55.3015 65.1189ZM46.3353 70.1263C45.5265 70.127 44.7356 69.8878 44.0628 69.439C43.39 68.9901 42.8654 68.3517 42.5556 67.6046C42.2457 66.8575 42.1644 66.0353 42.322 65.2419C42.4796 64.4486 42.869 63.7199 43.441 63.148C44.0129 62.5761 44.7416 62.1867 45.5349 62.0291C46.3282 61.8715 47.1505 61.9527 47.8976 62.2626C48.6447 62.5725 49.283 63.097 49.7319 63.7698C50.1808 64.4427 50.42 65.2335 50.4192 66.0423C50.419 67.1257 49.9887 68.1648 49.223 68.9312C48.4573 69.6976 47.4187 70.1288 46.3353 70.1301V70.1263Z" fill="#5A5A5A"/>
</svg>
