<?xml version="1.0" encoding="UTF-8" standalone="no"?><!-- Generator: Gravit.io --><svg xmlns="http://www.w3.org/2000/svg" xmlns:xlink="http://www.w3.org/1999/xlink" style="isolation:isolate" viewBox="0 0 58 64" width="58pt" height="64pt"><defs><clipPath id="_clipPath_7t1o5BVF2HOtcoCcYoOHq5DRlLLitiqX"><rect width="58" height="64"/></clipPath></defs><g clip-path="url(#_clipPath_7t1o5BVF2HOtcoCcYoOHq5DRlLLitiqX)"><path d=" M 47.9 37.9 C 46.3 35.7 44.5 33.9 42.4 32.4 C 42.2 32.2 41.9 32.1 41.7 31.9 C 43 30.7 44.2 29.2 45.1 27.7 C 46.6 25 47.5 21.9 47.5 18.6 C 47.5 8.5 39.3 0.4 29.2 0.4 C 19.2 0.4 11 8.5 11 18.6 C 11 21.9 11.9 25 13.4 27.7 C 14.3 29.3 15.5 30.7 16.8 31.9 C 16.5 32.1 16.3 32.2 16.1 32.4 C 14.1 33.9 12.3 35.8 10.6 37.9 C 5.9 44 3.1 52.4 3 61.4 L 3 61.5 C 3 62.8 4.1 63.9 5.4 63.9 L 5.5 63.9 L 52.9 63.9 L 53 63.9 C 54.3 63.9 55.4 62.8 55.4 61.5 L 55.4 61.5 C 55.3 52.4 52.5 44 47.9 37.9 Z  M 15.5 18.6 C 15.5 11 21.6 4.9 29.2 4.9 C 36.7 4.9 42.9 11.1 42.9 18.6 C 42.9 21 42.3 23.3 41.2 25.3 C 40.4 26.9 39.1 28.3 37.7 29.4 C 35.4 31.2 32.4 32.4 29.2 32.4 C 26 32.4 23.1 31.3 20.7 29.4 C 19.3 28.2 18 26.9 17.2 25.3 C 16.1 23.3 15.5 21 15.5 18.6 Z  M 9.1 59.1 C 8.6 59.1 8.2 58.7 8.2 58.1 C 8.8 51.2 11.2 45.2 14.6 40.6 C 16 38.8 17.5 37.2 19.3 36 C 19.8 35.6 20.4 35.2 21 34.8 C 23.3 35.9 25.8 36.6 28.5 36.7 L 24.8 53.2 L 29.2 57.7 L 33.7 53.2 L 29.9 36.7 C 32.6 36.6 35.1 35.9 37.3 34.8 C 37.9 35.2 38.5 35.6 39.2 36.1 C 40.9 37.3 42.5 38.9 43.9 40.7 C 47.2 45.1 49.6 51.2 50.2 58 C 50.2 58.5 49.8 59 49.3 59 C 43.7 59.1 14.7 59.1 9.1 59.1 Z " fill="rgb(255,255,255)"/></g></svg>