<?xml version="1.0" encoding="utf-8"?>
<!-- Generator: Adobe Illustrator 26.0.1, SVG Export Plug-In . SVG Version: 6.00 Build 0)  -->
<svg version="1.1" id="Layer_1" xmlns="http://www.w3.org/2000/svg" xmlns:xlink="http://www.w3.org/1999/xlink" x="0px" y="0px"
	 viewBox="0 0 80.5 66" style="enable-background:new 0 0 80.5 66;" xml:space="preserve">
<style type="text/css">
	.st0{fill-rule:evenodd;clip-rule:evenodd;fill:#5A5A5A;}
	.st1{fill:#5A5A5A;}
</style>
<g>
	<path class="st0" d="M36,45.6L36,45.6L36,45.6z"/>
	<g>
		<polygon class="st1" points="72,58.3 75,58.3 72.4,58.3 		"/>
	</g>
	<path class="st1" d="M77.9,59.7L67.1,48.8c-0.6-0.7-1.5-1-2.4-0.9l-3.2-3.2l-2.3-2.3l-2.7-2.7l-1.1-1.1c0,0,0-0.1,0.1-0.1
		c0.3-0.3,0.6-0.7,0.9-1c0.4-0.4,0.7-0.9,1-1.4c0.1-0.2,0.3-0.4,0.4-0.6c0.3-0.5,0.5-0.9,0.8-1.4s0.5-1.1,0.8-1.6
		c1-2.4,1.6-5.1,1.7-7.9c0-0.1,0-0.3,0-0.5c0-0.7-0.1-1.6-0.2-2.5C59.6,11.1,50.5,2.9,39.6,2.9c-11.2,0-20.4,8.6-21.4,19.5
		c-0.1,0.7-0.1,1.3-0.1,2c0,0.5,0,1,0.1,1.5c0.2,2.5,0.8,4.9,1.7,7.1c0.4,1,0.9,1.9,1.5,2.8l0.1,0.1c0.3,0.5,0.7,1.1,1.1,1.6
		c0.2,0.3,0.5,0.7,0.8,1l0.1,0.1l0.1,0.2c0.2,0.2,0.4,0.4,0.6,0.6c0.4,0.4,0.9,0.9,1.3,1.2c0.4,0.4,0.8,0.7,1.3,1
		c1.6,1.2,3.2,2,5,2.7c0.1,0.1,4.2,1.2,4.2,1.1c0,0,2.3,0.4,3.5,0.4h0.1h0.1c0.7,0,1.4,0,2.1-0.1c0,0,0,0,0,0
		c1.2-0.1,2.4-0.4,3.5-0.7c1.8-0.5,3.5-1.2,5-2.1c0.1-0.1,0.1-0.1,0.2-0.2c0.4-0.3,0.9-0.5,1.2-0.8c0.3-0.2,0.6-0.4,0.8-0.6l0.2,0.2
		l1.1,1.1l0.9,0.9l5,4.9l2.3,2.3c0,0.8,0.3,1.6,0.9,2.3l10.8,10.8c0.6,0.6,1.3,0.9,2.1,0.9s1.6-0.3,2.1-0.9
		C79.1,62.8,79.1,60.8,77.9,59.7z M27.1,36.6c-0.4-0.4-0.8-0.9-1.2-1.4c-0.6-0.8-1.1-1.5-1.6-2.4c0-0.1-0.1-0.1-0.1-0.2
		c-1.3-2.4-2-5.2-2-8.1v-0.1c0-1,0.1-2,0.2-3C23.7,13.2,31,6.9,39.6,6.9c8.7,0,15.9,6.4,17.3,14.7c0.2,0.9,0.2,1.9,0.2,2.8v0.2
		c0,3-0.9,5.9-2.3,8.4c0,0.1-0.1,0.2-0.1,0.2c-0.5,0.8-1,1.6-1.6,2.3c-0.2,0.2-0.4,0.5-0.7,0.7c-0.5,0.5-0.9,1-1.5,1.4
		c-0.2,0.2-0.5,0.4-0.8,0.6c-1.7,1.5-3.8,2.5-6,3.1c-1.5,0.4-3,0.6-4.5,0.6c-0.8,0-1.5-0.1-2.2-0.2c-1.7-0.2-3.3-0.7-4.8-1.3
		c-0.8-0.3-1.6-0.8-2.3-1.2c-0.8-0.5-1.6-1.1-2.4-1.8C27.6,37.1,27.3,36.9,27.1,36.6z"/>
	<g>
		<path class="st1" d="M56.3,19.4c0.2,0.7,0.4,1.5,0.5,2.2c0.1,0.3,0.1,0.7,0.1,1c0.1,0,0.2,0,0.3,0c1.3,0,2.6,0.3,3.8,0.9
			c0-0.6-0.1-1.2-0.2-1.8c-0.1-0.6-0.2-1.3-0.3-1.9c-1-0.3-2.1-0.5-3.3-0.5C57,19.3,56.6,19.3,56.3,19.4z"/>
		<path class="st1" d="M74.3,61.2L74.3,61.2c-0.1-2.1-0.5-4.1-1-6.1l-6.3-6.3c-0.2-0.2-0.4-0.3-0.6-0.5c2.2,3,3.7,7,4.1,11.6
			c0,0.2,0,0.5-0.1,0.7l3.2,3.2c0.1,0.1,0.3,0.3,0.5,0.4c0.1-0.2,0.2-0.4,0.2-0.6V61.2z"/>
		<path class="st1" d="M73,64.6l-3.4-3.4c0,0-0.1,0-0.1,0H60v-0.7h0c-0.3-5.2-1.7-10-3.7-14L54,44.3l-0.9-0.9l-0.7-0.7
			c0,0-0.1,0.1-0.1,0.1c-0.3,0.3-0.7,0.5-1.1,0.7c0,0,0,0-0.1,0.1l-0.1,0.1l-0.2,0.1c-0.3,0.2-0.6,0.3-0.9,0.5
			c0.3,0.4,0.6,0.8,0.9,1.2C53.3,49,55,53.8,55.5,59c0.1,0.8-0.6,1.5-1.4,1.5h-10h-3.8h-2.1h-3.8h-9.6c-0.8,0-1.4-0.7-1.4-1.5
			c0.5-5.2,2.1-9.8,4.5-13.3c0.3-0.5,0.7-1,1.1-1.5c-1-0.5-2-1.1-2.9-1.8c-0.5-0.3-1-0.7-1.4-1.1c-0.4-0.3-0.9-0.8-1.3-1.2l-0.4-0.4
			l-0.2-0.2l0,0c-0.5,0.1-1,0.2-1.6,0.2c-4.7,0-8.5-3.8-8.5-8.5c0-3.2,1.7-5.9,4.3-7.4c0-0.5,0-0.9,0.1-1.4c0.1-0.8,0.2-1.6,0.4-2.3
			c-4.7,1.6-8.1,6-8.1,11.2c0,4.3,2.3,8,5.7,10.1c-6,3.2-10.3,10.8-10.9,20h0v2.4c0,0.6,0.5,1.1,1.1,1.1h15h16.8h4.2h17.2h14.6
			C73.1,64.7,73,64.6,73,64.6z M19.1,60.5L19.1,60.5l0,0.7H9.1C8.5,61.2,8,60.6,8,60C8.9,50.4,14.5,43,21.3,43
			c1.1,0,2.2,0.2,3.2,0.6C21.5,48.1,19.5,54,19.1,60.5z"/>
		<path class="st1" d="M21.3,22.6c0.3,0,0.6,0,1,0.1c0-0.4,0.1-0.8,0.1-1.3c0.1-0.7,0.3-1.3,0.5-2c-0.5-0.1-1-0.1-1.5-0.1
			c-0.9,0-1.8,0.1-2.7,0.3c-0.2,0.9-0.4,1.8-0.5,2.8c0,0.3-0.1,0.6-0.1,0.8C19.1,22.8,20.2,22.6,21.3,22.6z"/>
		<path class="st1" d="M49.5,37.4L49.5,37.4c0.3-0.2,0.6-0.4,0.7-0.5l0.1-0.1l0.1-0.1c0.1-0.1,0.2-0.2,0.3-0.3
			c-0.5-0.6-0.9-1.3-1.2-2c2.6-2.6,4.2-6.1,4.2-10.1c0-0.3,0-0.7,0-1c0.7-0.4,1.5-0.6,2.4-0.7c0-0.3-0.1-0.6-0.1-0.9l0,0l0,0
			c-0.1-0.8-0.3-1.5-0.6-2.3c-0.8,0.1-1.6,0.3-2.3,0.6c-1.8-5.7-7.2-9.9-13.5-9.9c-6.4,0-11.8,4.2-13.6,10c-0.7-0.3-1.4-0.5-2.1-0.7
			c-0.2,0.6-0.3,1.3-0.5,1.9c0,0.4-0.1,0.9-0.1,1.3c0.7,0.2,1.4,0.4,2.1,0.8c0,0.3,0,0.5,0,0.8c0,3.8,1.5,7.2,3.9,9.8
			c-0.3,0.7-0.7,1.4-1.2,2.1c0,0,0.1,0.1,0.1,0.1c0.1,0.1,0.2,0.2,0.3,0.3c0.7,0.7,1.5,1.2,2.2,1.7l0.4,0.2c0.6,0.3,1.2,0.7,1.8,0.9
			c0.5,0.2,0.9,0.4,1.4,0.5c1.6-0.8,3.4-1.3,5.2-1.3c1.9,0,3.6,0.5,5.3,1.3C46.6,39.4,48.2,38.6,49.5,37.4L49.5,37.4z M31.7,36.8
			c0.1-0.1,0.2-0.3,0.2-0.4c0.1,0.1,0.2,0.1,0.3,0.2C32,36.6,31.8,36.7,31.7,36.8z M45.6,32.7c-1.7,1.2-3.8,2-6.1,2
			c-2.5,0-4.7-0.9-6.5-2.3c-2.3-1.9-3.8-4.7-3.8-7.9c0-0.6,0.1-1.2,0.2-1.8c0.9-4.8,5-8.4,10.1-8.4c4.9,0,9,3.5,10,8.1
			c0.1,0.7,0.2,1.4,0.2,2.2C49.7,27.8,48.1,30.8,45.6,32.7z"/>
		<path class="st1" d="M61.9,21.6c0.1,0.9,0.2,1.7,0.2,2.5c2.3,1.5,3.8,4.1,3.8,7.1c0,4.6-3.6,8.3-8.1,8.5l2.2,2.2l2.3,2.3l0.9,0.9
			c0.8,0.6,1.6,1.3,2.3,2.1c0.9,0.1,1.8,0.5,2.4,1.1l5,5c-1.9-5.4-5.2-9.7-9.3-11.9c3.4-2.1,5.7-5.8,5.7-10.1c0-5-3.1-9.3-7.5-11
			C61.7,20.6,61.8,21.1,61.9,21.6z"/>
		<path class="st1" d="M50.5,42.8c0.4-0.3,0.9-0.5,1.2-0.8c0.3-0.2,0.6-0.4,0.8-0.6l0.2,0.2l1.1,1.1l0.8,0.8
			c0.9-0.3,1.8-0.4,2.8-0.4c1,0,2,0.2,2.9,0.5l-1-1l-2.7-2.7l-0.2-0.2c-1.9-0.2-3.6-1.1-4.9-2.3c-0.1,0.1-0.3,0.3-0.5,0.4
			c-0.2,0.2-0.5,0.4-0.8,0.6c-1.2,1.1-2.6,1.9-4.1,2.5c1,0.6,1.9,1.4,2.7,2.2c0.2,0.2,0.4,0.4,0.6,0.7c0.3-0.2,0.7-0.4,1-0.6
			C50.3,42.9,50.4,42.9,50.5,42.8z"/>
		<path class="st1" d="M25.5,40.6c0.4,0.4,0.8,0.7,1.3,1c1,0.7,2,1.3,3,1.9c0.1-0.1,0.2-0.3,0.3-0.4c0.9-1,1.9-1.8,3-2.5
			c-0.2-0.1-0.4-0.1-0.6-0.2c-0.8-0.3-1.6-0.8-2.3-1.2c-0.8-0.5-1.6-1.1-2.4-1.8c-0.1-0.1-0.3-0.3-0.4-0.4c-0.9,1-2.1,1.8-3.5,2.2
			c0.1,0.1,0.1,0.1,0.2,0.2C24.6,39.8,25.1,40.3,25.5,40.6z"/>
	</g>
</g>
</svg>
