<svg version="1.2" xmlns="http://www.w3.org/2000/svg" viewBox="0 0 81 66" width="66" height="66">
	<title>hr-white-svg</title>
	<style>
		.s0 { fill: #ffffff } 
	</style>
	<g id="Layer">
		<path id="Layer" class="s0" d="" />
		<g id="Layer">
			<path id="Layer" class="s0" d="m72 58.3h3h-2.6z" />
		</g>
		<path id="Layer" fill-rule="evenodd" class="s0" d="m77.9 63.8c-0.5 0.6-1.3 0.9-2.1 0.9q-1.2 0-2.1-0.9l-10.8-10.8c-0.6-0.7-0.9-1.5-0.9-2.3l-2.3-2.3l-5-4.9l-2.2-2.2c-0.2 0.2-0.5 0.4-0.8 0.6c-0.3 0.3-0.8 0.5-1.2 0.8c-0.1 0.1-0.1 0.1-0.2 0.2c-1.5 0.9-3.2 1.6-5 2.1c-1.1 0.3-2.3 0.6-3.5 0.7c-0.7 0.1-1.4 0.1-2.1 0.1h-0.2c-1.2 0-3.5-0.4-3.5-0.4c0 0.1-4.1-1-4.2-1.1c-1.8-0.7-3.4-1.5-5-2.7c-0.5-0.3-0.9-0.6-1.3-1c-0.4-0.3-0.9-0.8-1.3-1.2q-0.3-0.3-0.6-0.6l-0.1-0.2l-0.1-0.1c-0.3-0.3-0.6-0.7-0.8-1c-0.4-0.5-0.8-1.1-1.1-1.6l-0.1-0.1c-0.6-0.9-1.1-1.8-1.5-2.8c-0.9-2.2-1.5-4.6-1.7-7.1c-0.1-0.5-0.1-1-0.1-1.5c0-0.7 0-1.3 0.1-2c1-10.9 10.2-19.5 21.4-19.5c10.9 0 20 8.2 21.3 18.7c0.1 0.9 0.2 1.8 0.2 2.5c0 0.2 0 0.4 0 0.5c-0.1 2.8-0.7 5.5-1.7 7.9c-0.3 0.5-0.5 1.1-0.8 1.6c-0.3 0.5-0.5 0.9-0.8 1.4c-0.1 0.2-0.3 0.4-0.4 0.6c-0.3 0.5-0.6 1-1 1.4c-0.3 0.3-0.6 0.7-0.9 1c-0.1 0-0.1 0.1-0.1 0.1l9.3 9.3c0.9-0.1 1.8 0.2 2.4 0.9l10.8 10.9c1.2 1.1 1.2 3.1 0 4.1zm-50-26.4q1.2 1.1 2.4 1.8c0.7 0.4 1.5 0.9 2.3 1.2c1.5 0.6 3.1 1.1 4.8 1.3c0.7 0.1 1.4 0.2 2.2 0.2q2.3 0 4.5-0.6c2.2-0.6 4.3-1.6 6-3.1c0.3-0.2 0.6-0.4 0.8-0.6c0.6-0.4 1-0.9 1.5-1.4c0.3-0.2 0.5-0.5 0.7-0.7c0.6-0.7 1.1-1.5 1.6-2.3c0 0 0.1-0.1 0.1-0.2c1.4-2.5 2.3-5.4 2.3-8.4v-0.2c0-0.9 0-1.9-0.2-2.8c-1.4-8.3-8.6-14.7-17.3-14.7c-8.6 0-15.9 6.3-17.2 14.5c-0.1 1-0.2 2-0.2 3v0.1c0 2.9 0.7 5.7 2 8.1c0 0.1 0.1 0.1 0.1 0.2c0.5 0.9 1 1.6 1.6 2.4c0.4 0.5 0.8 1 1.2 1.4c0.2 0.3 0.5 0.5 0.8 0.8z" />
		<g id="Layer">
			<path id="Layer" class="s0" d="m57.2 19.3c1.2 0 2.3 0.2 3.3 0.5c0.1 0.6 0.2 1.3 0.3 1.9c0.1 0.6 0.2 1.2 0.2 1.8c-1.2-0.6-2.5-0.9-3.8-0.9q-0.1 0-0.3 0c0-0.3 0-0.7-0.1-1c-0.1-0.7-0.3-1.5-0.5-2.2c0.3-0.1 0.7-0.1 0.9-0.1z" />
			<path id="Layer" class="s0" d="m74.3 63.6c0 0.2-0.1 0.4-0.2 0.6c-0.2-0.1-0.4-0.3-0.5-0.4l-3.2-3.2c0.1-0.2 0.1-0.5 0.1-0.7c-0.4-4.6-1.9-8.6-4.1-11.6c0.2 0.2 0.4 0.3 0.6 0.5l6.3 6.3c0.5 2 0.9 4 1 6.1z" />
			<path id="Layer" fill-rule="evenodd" class="s0" d="m73.1 64.9h-67.8c-0.6 0-1.1-0.5-1.1-1.1v-2.4c0.6-9.2 4.9-16.8 10.9-20c-3.4-2.1-5.7-5.8-5.7-10.1c0-5.2 3.4-9.6 8.1-11.2c-0.2 0.7-0.3 1.5-0.4 2.3c-0.1 0.5-0.1 0.9-0.1 1.4c-2.6 1.5-4.3 4.2-4.3 7.4c0 4.7 3.8 8.5 8.5 8.5c0.6 0 1.1-0.1 1.6-0.2l0.6 0.6c0.4 0.4 0.9 0.9 1.3 1.2c0.4 0.4 0.9 0.8 1.4 1.1c0.9 0.7 1.9 1.3 2.9 1.8c-0.4 0.5-0.8 1-1.1 1.5c-2.4 3.5-4 8.1-4.5 13.3c0 0.8 0.6 1.5 1.4 1.5h29.3c0.8 0 1.5-0.7 1.4-1.5c-0.5-5.2-2.2-10-4.7-13.5q-0.5-0.6-0.9-1.2c0.3-0.2 0.6-0.3 0.9-0.5l0.2-0.1c0.1-0.1 0.2-0.2 0.2-0.2c0.4-0.2 0.8-0.4 1.1-0.7l0.1-0.1l1.6 1.6l2.3 2.2c2 4 3.4 8.8 3.7 14v0.7h9.6l3.4 3.4c0 0 0.1 0.1 0.1 0.3zm-48.6-21.3c-1-0.4-2.1-0.6-3.2-0.6c-6.8 0-12.4 7.4-13.3 17c0 0.6 0.5 1.2 1.1 1.2h10v-0.7c0.4-6.5 2.4-12.4 5.4-16.9z" />
			<path id="Layer" class="s0" d="m18.1 23.2c0-0.2 0.1-0.5 0.1-0.8c0.1-1 0.3-1.9 0.5-2.8q1.4-0.3 2.7-0.3c0.5 0 1 0 1.5 0.1c-0.2 0.7-0.4 1.3-0.5 2c0 0.5-0.1 0.9-0.1 1.3c-0.4-0.1-0.7-0.1-1-0.1c-1.1 0-2.2 0.2-3.2 0.6z" />
			<path id="Layer" fill-rule="evenodd" class="s0" d="m44.8 39.8c-1.7-0.8-3.4-1.3-5.3-1.3c-1.8 0-3.6 0.5-5.2 1.3c-0.5-0.1-0.9-0.3-1.4-0.5c-0.6-0.2-1.2-0.6-1.8-0.9l-0.4-0.2c-0.7-0.5-1.5-1-2.2-1.7c-0.1-0.1-0.3-0.3-0.4-0.4q0.8-1.1 1.2-2.1c-2.4-2.6-3.9-6-3.9-9.8c0-0.3 0-0.5 0-0.8c-0.7-0.4-1.4-0.6-2.1-0.8c0-0.4 0.1-0.9 0.1-1.3c0.2-0.6 0.3-1.3 0.5-1.9c0.7 0.2 1.4 0.4 2.1 0.7c1.8-5.8 7.2-10 13.6-10c6.3 0 11.7 4.2 13.5 9.9c0.7-0.3 1.5-0.5 2.3-0.6c0.3 0.8 0.5 1.5 0.6 2.3c0 0.3 0.1 0.6 0.1 0.9c-0.9 0.1-1.7 0.3-2.4 0.7c0 0.3 0 0.7 0 1c0 4-1.6 7.5-4.2 10.1c0.3 0.7 0.7 1.4 1.2 2c-0.1 0.1-0.4 0.4-0.5 0.5c-0.1 0.1-0.4 0.3-0.7 0.5c-1.3 1.2-2.9 2-4.7 2.4zm-12.6-3.2c-0.1-0.1-0.2-0.1-0.3-0.2c0 0.1-0.1 0.3-0.2 0.4c0.1-0.1 0.3-0.2 0.5-0.2zm17.5-12c0-0.8-0.1-1.5-0.2-2.2c-1-4.6-5.1-8.1-10-8.1c-5.1 0-9.2 3.6-10.1 8.4c-0.1 0.6-0.2 1.2-0.2 1.8c0 3.2 1.5 6 3.8 7.9c1.8 1.4 4 2.3 6.5 2.3c2.3 0 4.4-0.8 6.1-2c2.5-1.9 4.1-4.9 4.1-8.1z" />
			<path id="Layer" class="s0" d="m61.8 20.3c4.4 1.7 7.5 6 7.5 11c0 4.3-2.3 8-5.7 10.1c4.1 2.2 7.4 6.5 9.3 11.9l-5-5c-0.6-0.6-1.5-1-2.4-1.1c-0.7-0.8-1.5-1.5-2.3-2.1l-0.9-0.9l-2.3-2.3l-2.2-2.2c4.5-0.2 8.1-3.9 8.1-8.5c0-3-1.5-5.6-3.8-7.1c0-0.8-0.1-1.6-0.2-2.5c-0.1-0.5-0.2-1-0.1-1.3z" />
			<path id="Layer" class="s0" d="m50.4 43.2c-0.3 0.2-0.7 0.4-1 0.6c-0.2-0.3-0.4-0.5-0.6-0.7c-0.8-0.8-1.7-1.6-2.7-2.2c1.5-0.6 2.9-1.4 4.1-2.5c0.3-0.2 0.6-0.4 0.8-0.6c0.2-0.1 0.4-0.3 0.5-0.4c1.3 1.2 3 2.1 4.9 2.3l0.2 0.2l2.7 2.7l1 1c-0.9-0.3-1.9-0.5-2.9-0.5c-1 0-1.9 0.1-2.8 0.4l-0.8-0.8l-1.1-1.1l-0.2-0.2c-0.2 0.2-0.5 0.4-0.8 0.6c-0.3 0.3-0.8 0.5-1.2 0.8c-0.1 0.1-0.2 0.1-0.1 0.4z" />
			<path id="Layer" class="s0" d="m24.1 39.4c-0.1-0.1-0.1-0.1-0.2-0.2c1.4-0.4 2.6-1.2 3.5-2.2c0.1 0.1 0.3 0.3 0.4 0.4q1.2 1 2.4 1.8c0.7 0.4 1.5 0.9 2.3 1.2c0.2 0.1 0.4 0.1 0.6 0.2c-1.1 0.7-2.1 1.5-3 2.5c-0.1 0.1-0.2 0.3-0.3 0.4c-1-0.6-2-1.2-3-1.9c-0.5-0.3-0.9-0.6-1.3-1c-0.4-0.3-0.9-0.8-1.4-1.2z" />
		</g>
	</g>
</svg>