<svg width="86" height="63" viewBox="0 0 86 63" fill="none" xmlns="http://www.w3.org/2000/svg">
<path d="M31.008 36.4913L33.2928 35.2231C32.8444 33.5506 32.9058 33.7777 32.4574 32.1078L29.8446 32.1512C29.1888 31.0207 29.0437 30.7624 28.3903 29.6327L29.734 27.3913L27.4532 25.1098L25.2118 26.4535L22.6933 24.9999L22.736 22.3863L19.6207 21.5518L18.3516 23.8366H15.442L14.1738 21.5518L11.0585 22.3863L11.1011 24.9999L8.5826 26.4535L6.34122 25.1098L4.05884 27.3889L5.40252 29.6303C4.74667 30.76 4.60074 31.0182 3.94816 32.1488L1.3354 32.1053C0.886955 33.7777 0.948441 33.5506 0.5 35.2206L2.78484 36.4889V39.3968L0.5 40.6691C0.948441 42.3408 0.886955 42.1137 1.3354 43.7845L3.94816 43.7402C4.60402 44.8699 4.74913 45.1281 5.40252 46.2587L4.05884 48.5017L6.33958 50.7833L8.58097 49.4396C9.71068 50.0954 9.96892 50.2414 11.0995 50.8939L11.0568 53.5067L14.1721 54.3421L15.4404 52.0573H18.3491L19.6182 54.3421L22.7335 53.5067L22.6909 50.8939L25.2094 49.4396L27.4508 50.7833L29.7315 48.5017L28.3903 46.2611C29.0461 45.1306 29.1921 44.8724 29.8446 43.7427L32.4574 43.7853C32.9058 42.1137 32.8444 42.3408 33.2928 40.67L31.008 39.4001V36.4913ZM17.0194 44.3788C15.7368 44.4028 14.4764 44.0429 13.4 43.3452C12.3235 42.6476 11.4802 41.6441 10.9782 40.4636C10.4763 39.2831 10.3387 37.9796 10.583 36.7203C10.8274 35.461 11.4426 34.3036 12.3497 33.3965C13.2567 32.4895 14.4142 31.8743 15.6735 31.6299C16.9327 31.3855 18.2363 31.5231 19.4168 32.0251C20.5972 32.527 21.6007 33.3704 22.2984 34.4468C22.996 35.5233 23.3559 36.7837 23.332 38.0662C23.3007 39.7306 22.6255 41.3181 21.4484 42.4953C20.2713 43.6724 18.6838 44.3475 17.0194 44.3788V44.3788Z" fill="#5A5A5A"/>
<path d="M46.2493 53.2177L47.4503 52.5511L47.0117 50.9115L45.6377 50.9345C45.2942 50.3401 45.2163 50.204 44.8728 49.6105L45.5795 48.4316L44.3801 47.2322L43.2012 47.9388L41.8772 47.174L41.9001 45.7999L40.2605 45.3613L39.5932 46.5624H38.0642L37.3977 45.3613L35.758 45.7999L35.7802 47.174L34.4562 47.9388L33.2773 47.2322L32.0779 48.4316L32.7845 49.6105C32.441 50.204 32.3632 50.3401 32.0197 50.9345L30.6456 50.9115L30.207 52.5511L31.4081 53.2177V54.7466L30.207 55.4148L30.6456 57.0544L32.0197 57.0323L32.7845 58.3563L32.0779 59.5352L33.2773 60.7346L34.4562 60.0279L35.781 60.7912L35.7589 62.1652L37.3985 62.6038L38.065 61.4027H39.5948L40.2621 62.6038L41.9018 62.1652L41.8772 60.7912L43.2012 60.0263L44.3801 60.7329L45.5795 59.5335L44.8728 58.3547L45.6377 57.0306L47.0117 57.0528L47.4503 55.4131L46.2493 54.745V53.2177ZM38.8274 57.3659C38.1582 57.3656 37.504 57.1668 36.9477 56.7947C36.3915 56.4225 35.9581 55.8937 35.7024 55.2752C35.4467 54.6567 35.3801 53.9763 35.5112 53.32C35.6423 52.6637 35.965 52.061 36.4387 51.5881C36.9123 51.1153 37.5156 50.7935 38.1721 50.6636C38.8287 50.5336 39.509 50.6013 40.1271 50.858C40.7451 51.1148 41.2732 51.5491 41.6444 52.106C42.0156 52.6629 42.2133 53.3174 42.2125 53.9867C42.2114 54.8836 41.8542 55.7433 41.2195 56.377C40.5847 57.0107 39.7244 57.3664 38.8274 57.3659V57.3659Z" fill="#5A5A5A"/>
<path d="M17.1406 53.6367C17.1413 54.7954 17.602 55.9064 18.4216 56.7255C19.2411 57.5446 20.3524 58.0047 21.5111 58.0047H29.5224" stroke="#5A5A5A" stroke-width="3" stroke-miterlimit="10" stroke-linecap="round"/>
<path d="M17.1406 22.096V18.5511C17.1406 17.392 17.6011 16.2804 18.4207 15.4607C19.2403 14.6411 20.352 14.1807 21.5111 14.1807H79.6699C80.829 14.1807 81.9407 14.6411 82.7603 15.4607C83.5799 16.2804 84.0404 17.392 84.0404 18.5511V53.6394C84.0391 54.7976 83.578 55.9079 82.7585 56.7263C81.939 57.5448 80.8281 58.0044 79.6699 58.0041H48.4602" stroke="#5A5A5A" stroke-width="3" stroke-miterlimit="10" stroke-linecap="round"/>
<path d="M40.6523 14.1804V12.094C40.8686 9.71647 41.966 7.50572 43.7289 5.89591C45.4919 4.2861 47.7929 3.39355 50.1803 3.39355C52.5676 3.39355 54.8687 4.2861 56.6316 5.89591C58.3946 7.50572 59.4919 9.71647 59.7082 12.094V14.1812" stroke="#5A5A5A" stroke-width="5" stroke-miterlimit="10"/>
<path d="M32.1445 27.6973H84.0391V31.5201H35.1033" stroke="#5A5A5A" stroke-width="2" stroke-miterlimit="10" stroke-linecap="round"/>
</svg>
