<svg width="80" height="77" viewBox="0 0 80 77" fill="none" xmlns="http://www.w3.org/2000/svg">
<path d="M24.2305 68.8906V69.4867C24.2307 70.0081 24.438 70.5081 24.8067 70.8769C25.1754 71.2456 25.6754 71.4528 26.1968 71.4531H34.7422" stroke="white" stroke-width="3" stroke-miterlimit="10" stroke-linecap="round"/>
<path d="M24.2305 25.4597V3.96637C24.2307 3.44493 24.438 2.94493 24.8067 2.57622C25.1754 2.20751 25.6754 2.00026 26.1968 2H75.7143C76.2358 2.00026 76.7358 2.20751 77.1045 2.57622C77.4732 2.94493 77.6805 3.44493 77.6807 3.96637V69.4854C77.6805 70.0068 77.4732 70.5068 77.1045 70.8756C76.7358 71.2443 76.2358 71.4515 75.7143 71.4518H58.4311" stroke="white" stroke-width="3" stroke-miterlimit="10" stroke-linecap="round"/>
<path d="M70.9623 14.043H30.6142C30.4584 14.043 30.332 14.1693 30.332 14.3251V15.081C30.332 15.2369 30.4584 15.3632 30.6142 15.3632H70.9623C71.1181 15.3632 71.2445 15.2369 71.2445 15.081V14.3251C71.2445 14.1693 71.1181 14.043 70.9623 14.043Z" fill="white"/>
<path d="M70.9623 24.1064H30.6142C30.4584 24.1064 30.332 24.2328 30.332 24.3886V25.1445C30.332 25.3003 30.4584 25.4267 30.6142 25.4267H70.9623C71.1181 25.4267 71.2445 25.3003 71.2445 25.1445V24.3886C71.2445 24.2328 71.1181 24.1064 70.9623 24.1064Z" fill="white"/>
<path d="M70.9658 34.1689H37.7118C37.556 34.1689 37.4297 34.2953 37.4297 34.4511V35.207C37.4297 35.3628 37.556 35.4892 37.7118 35.4892H70.9658C71.1216 35.4892 71.248 35.3628 71.248 35.207V34.4511C71.248 34.2953 71.1216 34.1689 70.9658 34.1689Z" fill="white"/>
<path d="M70.9664 43.5723H42.6611C42.5052 43.5723 42.3789 43.6986 42.3789 43.8544V44.6103C42.3789 44.7662 42.5052 44.8925 42.6611 44.8925H70.9664C71.1222 44.8925 71.2485 44.7662 71.2485 44.6103V43.8544C71.2485 43.6986 71.1222 43.5723 70.9664 43.5723Z" fill="white"/>
<path d="M70.9664 52.9756H42.6611C42.5052 52.9756 42.3789 53.1019 42.3789 53.2577V54.0137C42.3789 54.1695 42.5052 54.2958 42.6611 54.2958H70.9664C71.1222 54.2958 71.2485 54.1695 71.2485 54.0137V53.2577C71.2485 53.1019 71.1222 52.9756 70.9664 52.9756Z" fill="white"/>
<path d="M36.8622 45.454L39.623 43.921C39.0818 41.8987 39.156 42.1751 38.6138 40.1548L35.4573 40.2068L33.6998 37.1629L35.3234 34.4579L32.5674 31.7019L29.8595 33.3255L26.8156 31.569L26.8676 28.4115L23.1024 27.4023L21.5684 30.1631H18.0546L16.5216 27.3994L12.7554 28.4086L12.8074 31.5662L9.76444 33.3226L7.05659 31.699L4.29963 34.4579L5.92318 37.1658L4.16674 40.2068L1.00918 40.1548C0.467037 42.177 0.541185 41.9007 0 43.921L2.76081 45.454V48.9679L0 50.5019C0.541185 52.5241 0.467037 52.2468 1.00918 54.267L4.16674 54.215L5.92318 57.259L4.29963 59.9668L7.05659 62.7228L9.76444 61.0993L12.8074 62.8567L12.7554 66.0133L16.5216 67.0225L18.0546 64.2616H21.5684L23.1024 67.0225L26.8676 66.0133L26.8156 62.8567L29.8595 61.0993L32.5674 62.7228C34.0455 61.2437 33.8453 61.445 35.3234 59.9668L33.6998 57.259L35.4573 54.215L38.6138 54.267C39.156 52.2448 39.0818 52.5222 39.623 50.5019L36.8622 48.9679V45.454ZM19.812 54.9873C18.2742 54.9875 16.7708 54.5317 15.4921 53.6774C14.2134 52.8232 13.2167 51.6089 12.6281 50.1882C12.0395 48.7674 11.8854 47.2041 12.1854 45.6958C12.4854 44.1875 13.2259 42.8021 14.3133 41.7146C15.4007 40.6272 16.7862 39.8867 18.2945 39.5868C19.8027 39.2868 21.3661 39.4408 22.7868 40.0294C24.2076 40.618 25.4218 41.6147 26.2761 42.8934C27.1303 44.1722 27.5862 45.6755 27.586 47.2133C27.5852 49.2747 26.7659 51.2514 25.3081 52.7089C23.8503 54.1663 21.8734 54.9852 19.812 54.9854V54.9873Z" fill="white"/>
<path d="M55.3015 65.1198L56.7526 64.3138C56.4686 63.2546 56.5071 63.3952 56.222 62.333L54.5619 62.36C54.1478 61.6426 54.0535 61.4779 53.6384 60.7605L54.4916 59.3363C53.7145 58.5592 53.8175 58.6622 53.0472 57.887L51.6239 58.7412L50.0235 57.8167L50.0504 56.1566L48.0706 55.626L47.2646 57.0781H45.4118L44.6058 55.626L42.625 56.1566L42.6529 57.8167L41.0525 58.7412L39.6283 57.887L38.179 59.3363L39.0332 60.7586L38.1087 62.3581L36.4486 62.3311C36.1645 63.3904 36.203 63.2498 35.918 64.3119L37.3701 65.1179V66.9649L35.918 67.7718C36.2069 68.8311 36.1645 68.6895 36.4486 69.7517L38.1087 69.7247L39.0332 71.3242L38.179 72.7484L39.6283 74.1977L41.0525 73.3445L42.6529 74.268L42.625 75.9281L44.6058 76.4587L45.4118 75.0104H47.2597L48.0657 76.4616L50.0456 75.931L50.0186 74.2709L51.6191 73.3474L53.0423 74.2006C53.8204 73.4235 53.7164 73.5265 54.4868 72.7513L53.6336 71.3271C54.0486 70.6097 54.143 70.445 54.5571 69.7276L56.2172 69.7546C56.5061 68.6953 56.4637 68.8369 56.7478 67.7747L55.2966 66.9678L55.3015 65.1198ZM46.3353 70.1272C45.5265 70.128 44.7356 69.8888 44.0628 69.4399C43.39 68.9911 42.8654 68.3527 42.5556 67.6056C42.2457 66.8585 42.1644 66.0362 42.322 65.2429C42.4796 64.4496 42.869 63.7209 43.441 63.149C44.0129 62.5771 44.7416 62.1876 45.5349 62.03C46.3282 61.8724 47.1505 61.9537 47.8976 62.2636C48.6447 62.5735 49.283 63.098 49.7319 63.7708C50.1808 64.4436 50.42 65.2345 50.4192 66.0433C50.419 67.1267 49.9887 68.1657 49.223 68.9322C48.4573 69.6986 47.4187 70.1298 46.3353 70.1311V70.1272Z" fill="white"/>
</svg>
